<?xml version="1.0" encoding="UTF-8"?>
<svg width="289px" height="448px" viewBox="0 0 289 448" version="1.1" xmlns="http://www.w3.org/2000/svg" xmlns:xlink="http://www.w3.org/1999/xlink">
    <title>Uncommitted icon</title>
    <g id="Page-1" stroke="none" stroke-width="1" fill="none" fill-rule="evenodd">
        <g id="Uncommitted-icon" transform="translate(15.5001, 15.5)" fill="#000000" fill-rule="nonzero">
            <path d="M50,302 C85.8985087,302 115,331.101491 115,367 C115,402.898509 85.8985087,432 50,432 C14.1014913,432 -15,402.898509 -15,367 C-15,331.101491 14.1014913,302 50,302 Z M50,332 C30.6700338,332 15,347.670034 15,367 C15,386.329966 30.6700338,402 50,402 C69.3299662,402 85,386.329966 85,367 C85,347.670034 69.3299662,332 50,332 Z" id="Oval"></path>
            <path d="M50,-15 C85.8985087,-15 115,14.1014913 115,50 C115,85.8985087 85.8985087,115 50,115 C14.1014913,115 -15,85.8985087 -15,50 C-15,14.1014913 14.1014913,-15 50,-15 Z M50,15 C30.6700338,15 15,30.6700338 15,50 C15,69.3299662 30.6700338,85 50,85 C69.3299662,85 85,69.3299662 85,50 C85,30.6700338 69.3299662,15 50,15 Z" id="Oval"></path>
            <path d="M207.740134,-15 C243.638643,-15 272.740134,14.1014913 272.740134,50 C272.740134,85.8985087 243.638643,115 207.740134,115 C171.841626,115 142.740134,85.8985087 142.740134,50 C142.740134,14.1014913 171.841626,-15 207.740134,-15 Z M207.740134,15 C188.410168,15 172.740134,30.6700338 172.740134,50 C172.740134,69.3299662 188.410168,85 207.740134,85 C227.070101,85 242.740134,69.3299662 242.740134,50 C242.740134,30.6700338 227.070101,15 207.740134,15 Z" id="Oval"></path>
            <polygon id="Line" points="64.9999 85 64.9999 332 34.9999 332 34.9999 85"></polygon>
            <path d="M222.740134,100 L222.740134,175.699219 C222.740134,189.627301 217.15983,201.915106 207.725546,210.8357 C199.35216,218.753161 188.359026,223.5 178.105369,223.5 L50,223.5 L50,193.5 L178.105369,193.5 C180.361475,193.5 184.103164,191.884338 187.114098,189.037347 C190.702564,185.64427 192.740134,181.15755 192.740134,175.699219 L192.740134,100 L222.740134,100 Z" id="Path"></path>
        </g>
    </g>
</svg>