<?xml version="1.0" encoding="UTF-8"?>
<svg width="321px" height="408px" viewBox="0 0 321 408" version="1.1" xmlns="http://www.w3.org/2000/svg" xmlns:xlink="http://www.w3.org/1999/xlink">
    <title>Uncommitted icon</title>
    <g id="Page-1" stroke="none" stroke-width="1" fill="none" fill-rule="evenodd">
        <g id="Uncommitted-icon" transform="translate(15.5001, 15.5)" fill="#000000" fill-rule="nonzero">
            <path d="M130,262 C165.898509,262 195,291.101491 195,327 C195,362.898509 165.898509,392 130,392 C94.1014913,392 65,362.898509 65,327 C65,291.101491 94.1014913,262 130,262 Z M130,292 C110.670034,292 95,307.670034 95,327 C95,346.329966 110.670034,362 130,362 C149.329966,362 165,346.329966 165,327 C165,307.670034 149.329966,292 130,292 Z" id="Oval"></path>
            <path d="M50,-15 C85.8985087,-15 115,14.1014913 115,50 C115,85.8985087 85.8985087,115 50,115 C14.1014913,115 -15,85.8985087 -15,50 C-15,14.1014913 14.1014913,-15 50,-15 Z M50,15 C30.6700338,15 15,30.6700338 15,50 C15,69.3299662 30.6700338,85 50,85 C69.3299662,85 85,69.3299662 85,50 C85,30.6700338 69.3299662,15 50,15 Z" id="Oval"></path>
            <path d="M240,54 C275.898509,54 305,83.1014913 305,119 C305,154.898509 275.898509,184 240,184 C204.101491,184 175,154.898509 175,119 C175,83.1014913 204.101491,54 240,54 Z M240,84 C220.670034,84 205,99.6700338 205,119 C205,138.329966 220.670034,154 240,154 C259.329966,154 275,138.329966 275,119 C275,99.6700338 259.329966,84 240,84 Z" id="Oval"></path>
            <path d="M62.5,100 C62.5,123.64768 66.0189098,139.009371 72.4520499,149.138039 C77.0958125,156.449418 82.0275041,160.362874 94.7769325,167.94603 C95.5826848,168.425162 95.9790453,168.660954 96.4002198,168.912008 C103.789065,173.316349 108.052655,176.12915 112.66611,179.954467 C118.856114,185.087003 123.985624,190.935632 128.234341,198.056198 C137.777673,214.050187 142.5,236.014705 142.5,267 L117.5,267 C117.5,240.160011 113.700756,222.488943 106.765659,210.866183 C101.775492,202.502996 96.2734759,197.940915 83.5997802,190.386382 C83.189594,190.141878 82.803913,189.912439 81.9970408,189.432639 C74.4445532,184.94054 70.7706291,182.575001 66.4143311,179.118138 C60.416899,174.358983 55.4660149,169.023858 51.3488417,162.541568 C42.0572016,147.912331 37.5,128.018009 37.5,100 L62.5,100 Z" id="Path-2"></path>
            <path d="M252.5,169 C252.5,190.163203 245.264965,205.395081 231.292328,215.371023 C225.650578,219.399022 219.147589,222.433567 211.356067,224.968877 C210.642561,225.201047 209.942158,225.423156 209.242475,225.638672 L208.542574,225.852119 C203.988816,227.226904 199.2911,228.371944 191.048786,230.239454 C190.226857,230.425634 189.802412,230.52179 189.408899,230.611044 C188.793944,230.750524 188.276095,230.868274 187.781561,230.98115 C170.311217,234.968716 161.770106,238.008587 154.987815,243.424888 C146.811603,249.954368 142.5,260.046847 142.5,277 L117.5,277 C117.5,252.813803 124.921346,235.442125 139.387185,223.889784 C150.056279,215.369501 161.183931,211.409053 182.218439,206.607975 C182.725401,206.492262 183.253825,206.372108 183.879007,206.230308 C184.276161,206.140228 184.70435,206.043224 185.524415,205.857466 C203.200619,201.852464 210.553475,199.459894 216.765725,195.024578 C223.909476,189.924206 227.5,182.365096 227.5,169 L252.5,169 Z" id="Path-3"></path>
        </g>
    </g>
</svg>